<?xml version="1.0" encoding="iso-8859-1"?>
<!-- Generator: Adobe Illustrator 19.0.0, SVG Export Plug-In . SVG Version: 6.00 Build 0)  -->
<svg xmlns="http://www.w3.org/2000/svg" xmlns:xlink="http://www.w3.org/1999/xlink" version="1.1" id="Layer_1" x="0px" y="0px" viewBox="0 0 512 512" style="enable-background:new 0 0 512 512;" xml:space="preserve" width="512" height="512">
<g>
	<g>
		<g>
			<g>
				<g>
					<g>
						<path style="fill:#426175;" d="M290.534,336.048h-69.067c0,106.315-64.774,160.735-64.774,160.735h198.616        C355.308,496.782,290.534,442.363,290.534,336.048z"/>
						<path style="fill:#CDD6DF;" d="M368.902,504.574H143.098c-5.436,0-9.842-4.406-9.842-9.842v0        c0-17.322,14.042-31.364,31.364-31.364h182.76c17.322,0,31.364,14.042,31.364,31.364v0        C378.743,500.167,374.337,504.574,368.902,504.574z"/>
					</g>
					<g>
						<g>
							<path style="fill:#426175;" d="M492.102,397.045H19.898C8.908,397.045,0,388.136,0,377.147V27.324         C0,16.335,8.908,7.426,19.898,7.426h472.205c10.989,0,19.898,8.908,19.898,19.898v349.823         C512,388.136,503.091,397.045,492.102,397.045z"/>
							<path style="fill:#2C4456;" d="M492.102,7.426h-55.339c10.989,0,19.898,8.909,19.898,19.898v349.823         c0,10.989-8.908,19.898-19.898,19.898h55.339c10.989,0,19.898-8.909,19.898-19.898V27.324         C512,16.335,503.091,7.426,492.102,7.426z"/>
							<rect x="28.844" y="37.3" style="fill:#F2F2F2;" width="454.312" height="271.441"/>
							<path style="fill:#CDD6DF;" d="M0,339.646v37.501c0,10.989,8.909,19.898,19.898,19.898h472.205         c10.989,0,19.898-8.908,19.898-19.898v-37.501H0z"/>
							<path style="fill:#ABB2BA;" d="M492.102,397.044c10.989,0,19.898-8.908,19.898-19.898v-37.501h-55.339v37.501         c0,10.989-8.908,19.897-19.896,19.898H492.102z"/>
						</g>
					</g>
				</g>
			</g>
		</g>
		<g>
			<g>
				<g>
					<g>
						<path style="fill:#33BCA5;" d="M314.951,104.206c-18.391,16.872-55.093,21.103-74.413,22.146        c-7.445,0.402-13.696,5.735-15.232,13.031L202.44,248.004c-1.382,6.567,4.439,12.388,11.006,11.006l108.621-22.867        c7.295-1.536,12.629-7.784,13.031-15.229c1.043-19.319,5.273-56.024,22.146-74.416L314.951,104.206z M287.956,200.815        c-7.544,7.545-19.777,7.545-27.321,0c-7.545-7.545-7.545-19.777,0-27.321c7.544-7.545,19.777-7.545,27.321,0        C295.5,181.039,295.5,193.271,287.956,200.815z"/>
						<path style="fill:#46D1C0;" d="M267.234,205.142c-0.009-0.004-0.018-0.007-0.027-0.011c-0.064-0.025-0.129-0.051-0.193-0.077        c-0.016-0.007-0.033-0.014-0.049-0.02c-0.058-0.024-0.116-0.048-0.174-0.072c-0.019-0.008-0.037-0.016-0.056-0.024        c-0.054-0.023-0.108-0.046-0.161-0.069c-0.027-0.012-0.054-0.024-0.081-0.036c-0.046-0.02-0.093-0.041-0.139-0.062        c-0.027-0.012-0.054-0.025-0.081-0.037c-0.046-0.021-0.092-0.042-0.137-0.063c-0.028-0.013-0.056-0.026-0.084-0.04        c-0.044-0.021-0.089-0.042-0.133-0.063c-0.027-0.013-0.053-0.026-0.079-0.039c-0.047-0.023-0.095-0.046-0.142-0.07        c-0.023-0.012-0.046-0.023-0.069-0.035c-0.048-0.024-0.096-0.048-0.143-0.072c-0.027-0.014-0.055-0.028-0.082-0.043        c-0.044-0.023-0.087-0.045-0.131-0.068c-0.027-0.014-0.053-0.028-0.08-0.043c-0.046-0.024-0.091-0.049-0.137-0.074        c-0.026-0.014-0.052-0.029-0.078-0.043c-0.043-0.024-0.085-0.047-0.128-0.071c-0.029-0.016-0.059-0.033-0.088-0.05        c-0.042-0.024-0.084-0.048-0.126-0.072c-0.029-0.017-0.058-0.034-0.086-0.05c-0.04-0.023-0.08-0.047-0.12-0.071        c-0.03-0.018-0.06-0.036-0.09-0.054c-0.04-0.024-0.079-0.048-0.119-0.072c-0.029-0.018-0.059-0.036-0.088-0.054        c-0.041-0.025-0.082-0.051-0.122-0.076c-0.028-0.017-0.055-0.035-0.083-0.053c-0.039-0.025-0.079-0.05-0.118-0.076        c-0.03-0.02-0.061-0.04-0.091-0.06c-0.038-0.025-0.075-0.049-0.113-0.074c-0.03-0.02-0.06-0.04-0.091-0.061        c-0.037-0.025-0.074-0.05-0.111-0.076c-0.031-0.021-0.062-0.042-0.092-0.064c-0.038-0.026-0.075-0.053-0.113-0.079        c-0.029-0.02-0.057-0.04-0.085-0.06c-0.038-0.027-0.076-0.055-0.114-0.082c-0.029-0.021-0.058-0.042-0.086-0.063        c-0.038-0.028-0.076-0.056-0.114-0.084c-0.029-0.021-0.057-0.043-0.086-0.064c-0.035-0.027-0.071-0.054-0.106-0.08        c-0.03-0.023-0.061-0.046-0.091-0.07c-0.035-0.027-0.069-0.054-0.104-0.081c-0.031-0.024-0.062-0.048-0.093-0.073        c-0.035-0.028-0.07-0.056-0.105-0.084c-0.028-0.023-0.056-0.045-0.085-0.068c-0.038-0.031-0.075-0.062-0.113-0.093        c-0.027-0.022-0.054-0.044-0.081-0.067c-0.034-0.028-0.068-0.057-0.102-0.086c-0.03-0.026-0.061-0.051-0.091-0.077        c-0.035-0.03-0.07-0.061-0.105-0.091c-0.027-0.023-0.054-0.046-0.08-0.07c-0.038-0.033-0.075-0.066-0.112-0.1        c-0.026-0.023-0.052-0.046-0.077-0.069c-0.033-0.03-0.066-0.061-0.1-0.091c-0.029-0.026-0.058-0.052-0.086-0.079        c-0.049-0.045-0.097-0.091-0.146-0.136c-0.011-0.011-0.023-0.021-0.034-0.032c-0.047-0.044-0.093-0.089-0.14-0.134        c-0.015-0.015-0.031-0.03-0.047-0.045c-0.06-0.059-0.12-0.118-0.18-0.178c-0.06-0.06-0.119-0.12-0.178-0.18        c-0.019-0.019-0.037-0.039-0.056-0.058c-0.04-0.042-0.081-0.083-0.121-0.125c-0.022-0.023-0.044-0.047-0.066-0.07        c-0.035-0.037-0.07-0.075-0.105-0.112c-0.03-0.033-0.06-0.066-0.09-0.098c-0.026-0.028-0.052-0.056-0.077-0.085        c-0.027-0.03-0.054-0.061-0.081-0.091c-0.03-0.034-0.06-0.067-0.09-0.101c-0.022-0.025-0.043-0.05-0.065-0.075        c-0.033-0.038-0.066-0.076-0.098-0.113c-0.023-0.027-0.046-0.054-0.069-0.081c-0.031-0.036-0.061-0.072-0.092-0.109        c-0.023-0.027-0.045-0.055-0.068-0.083c-0.031-0.037-0.061-0.074-0.092-0.111c-0.023-0.028-0.046-0.057-0.069-0.086        c-0.028-0.035-0.056-0.069-0.083-0.104c-0.025-0.032-0.05-0.063-0.075-0.095c-0.027-0.034-0.053-0.068-0.08-0.102        c-0.022-0.029-0.044-0.058-0.067-0.087c-0.028-0.037-0.057-0.075-0.085-0.112c-0.02-0.027-0.04-0.054-0.061-0.081        c-0.03-0.04-0.059-0.08-0.088-0.12c-0.019-0.026-0.038-0.053-0.057-0.079c-0.029-0.039-0.057-0.079-0.085-0.119        c-0.02-0.028-0.039-0.055-0.059-0.083c-0.028-0.039-0.055-0.078-0.082-0.118c-0.02-0.029-0.04-0.058-0.06-0.087        c-0.027-0.039-0.053-0.078-0.08-0.118c-0.018-0.027-0.037-0.055-0.055-0.082c-0.027-0.041-0.054-0.081-0.081-0.122        c-0.018-0.027-0.036-0.055-0.054-0.083c-0.027-0.042-0.055-0.085-0.082-0.127c-0.016-0.025-0.031-0.049-0.047-0.074        c-0.027-0.044-0.055-0.087-0.082-0.131c-0.016-0.026-0.033-0.053-0.049-0.079c-0.026-0.043-0.052-0.085-0.078-0.128        c-0.016-0.027-0.033-0.054-0.049-0.081c-0.026-0.043-0.051-0.086-0.076-0.129c-0.015-0.026-0.03-0.051-0.045-0.077        c-0.026-0.045-0.052-0.09-0.077-0.135c-0.015-0.026-0.03-0.053-0.045-0.079c-0.026-0.046-0.051-0.092-0.077-0.138        c-0.013-0.023-0.025-0.046-0.038-0.069c-0.026-0.048-0.053-0.097-0.079-0.146c-0.013-0.024-0.025-0.047-0.038-0.071        c-0.025-0.047-0.049-0.094-0.074-0.141c-0.012-0.024-0.025-0.048-0.037-0.072c-0.026-0.051-0.052-0.102-0.078-0.154        c-0.01-0.02-0.02-0.039-0.029-0.059c-0.025-0.051-0.05-0.102-0.075-0.152c-0.011-0.023-0.023-0.046-0.034-0.069        c-0.024-0.05-0.048-0.1-0.071-0.151c-0.01-0.021-0.02-0.043-0.03-0.065c-0.025-0.054-0.05-0.109-0.075-0.163        c-0.008-0.018-0.017-0.037-0.025-0.055c-0.025-0.056-0.05-0.112-0.075-0.169c-0.007-0.017-0.015-0.034-0.023-0.051        c-0.027-0.062-0.054-0.125-0.08-0.187c-0.004-0.011-0.009-0.021-0.014-0.032c-0.03-0.07-0.059-0.141-0.088-0.212        c-0.001-0.003-0.003-0.006-0.004-0.01c-0.03-0.075-0.06-0.149-0.089-0.224l-53.888,53.889        c-1.296,6.493,4.434,12.223,10.927,10.926L267.234,205.142z"/>
					</g>
				</g>
				<path style="fill:#426175;" d="M338.111,80.893l-23.16,23.313l42.293,42.293l23.313-23.16c3.649-3.625,3.659-9.524,0.022-13.161      l-29.306-29.306C347.635,77.235,341.736,77.244,338.111,80.893z"/>
			</g>
			<g>
				<path style="fill:#FD715C;" d="M102.644,113.407H72.501c-3.339,0-6.046-2.707-6.046-6.046V77.217      c0-3.339,2.707-6.046,6.046-6.046h30.143c3.339,0,6.046,2.707,6.046,6.046v30.143C108.69,110.7,105.983,113.407,102.644,113.407      z"/>
				<path style="fill:#FED066;" d="M102.644,189.745H72.501c-3.339,0-6.046-2.707-6.046-6.046v-30.143      c0-3.339,2.707-6.046,6.046-6.046h30.143c3.339,0,6.046,2.707,6.046,6.046v30.143      C108.69,187.038,105.983,189.745,102.644,189.745z"/>
				<path style="fill:#88DBFD;" d="M102.644,265.054H72.501c-3.339,0-6.046-2.707-6.046-6.046v-30.143      c0-3.339,2.707-6.046,6.046-6.046h30.143c3.339,0,6.046,2.707,6.046,6.046v30.143      C108.69,262.347,105.983,265.054,102.644,265.054z"/>
			</g>
		</g>
	</g>
</g>















</svg>
